<svg width="15" height="9" viewBox="0 0 15 9" fill="none" xmlns="http://www.w3.org/2000/svg">
<g clip-path="url(#clip0_12_2)">
<path d="M13.2703 1.23476C13.6469 0.85476 14.2603 0.852021 14.6403 1.22865C15.0203 1.60528 15.023 2.21865 14.6464 2.59865L12.3488 4.91685C11.4835 5.78998 10.7762 6.50359 10.146 7.00968C9.49076 7.53594 8.82563 7.91689 8.02723 8.01866C7.67715 8.06328 7.32289 8.06328 6.97281 8.01866C6.17441 7.91689 5.50928 7.53594 4.85399 7.00968C4.22382 6.5036 3.51658 5.78999 2.65124 4.91687L0.353628 2.59865C-0.0230004 2.21865 -0.0202643 1.60528 0.35974 1.22865C0.739745 0.852021 1.35312 0.85476 1.72975 1.23476L3.98668 3.51193C4.90265 4.43611 5.53304 5.07006 6.06718 5.49902C6.58604 5.91571 6.91931 6.05866 7.21778 6.09671C7.4052 6.1206 7.59484 6.1206 7.78225 6.09671C8.08073 6.05866 8.414 5.91571 8.93286 5.49902C9.467 5.07006 10.0974 4.43611 11.0133 3.51193L13.2703 1.23476Z" fill="#8C8989"/>
</g>
<defs>
<clipPath id="clip0_12_2">
<rect width="15" height="9" fill="white" transform="matrix(1 0 0 -1 0 9)"/>
</clipPath>
</defs>
</svg>
