<svg width="26" height="28" viewBox="0 0 28 28" fill="none" xmlns="http://www.w3.org/2000/svg">
  <!-- Outline path -->
  <path fill-rule="evenodd" clip-rule="evenodd" d="M7.34261 5.79319C4.23133 8.05367 2.67568 9.18391 2.06469 10.8534C2.01568 10.9874 1.97159 11.123 1.93253 11.2602C1.44551 12.97 2.03971 14.7988 3.22811 18.4563C4.41652 22.1138 5.01072 23.9426 6.40973 25.0396C6.52195 25.1276 6.63737 25.2115 6.75574 25.291C8.23137 26.2825 10.1542 26.2825 14 26.2825C17.8458 26.2825 19.7686 26.2825 21.2443 25.291C21.3626 25.2115 21.4781 25.1276 21.5903 25.0396C22.9893 23.9426 23.5835 22.1138 24.7719 18.4563C25.9603 14.7988 26.5545 12.97 26.0675 11.2602C26.0284 11.123 25.9843 10.9874 25.9353 10.8534C25.3243 9.18392 23.7687 8.05368 20.6574 5.7932C17.5461 3.53272 15.9905 2.40247 14.2139 2.3373C14.0713 2.33207 13.9287 2.33207 13.7862 2.3373C12.0095 2.40247 10.4539 3.53271 7.34261 5.79319ZM11.6667 19.9146C11.1834 19.9146 10.7917 20.3064 10.7917 20.7896C10.7917 21.2729 11.1834 21.6646 11.6667 21.6646H16.3333C16.8166 21.6646 17.2083 21.2729 17.2083 20.7896C17.2083 20.3064 16.8166 19.9146 16.3333 19.9146H11.6667Z" stroke="" stroke-width="3.5"/>

  <!-- Fill path -->
  <path fill-rule="evenodd" clip-rule="evenodd" d="M7.34261 5.79319C4.23133 8.05367 2.67568 9.18391 2.06469 10.8534C2.01568 10.9874 1.97159 11.123 1.93253 11.2602C1.44551 12.97 2.03971 14.7988 3.22811 18.4563C4.41652 22.1138 5.01072 23.9426 6.40973 25.0396C6.52195 25.1276 6.63737 25.2115 6.75574 25.291C8.23137 26.2825 10.1542 26.2825 14 26.2825C17.8458 26.2825 19.7686 26.2825 21.2443 25.291C21.3626 25.2115 21.4781 25.1276 21.5903 25.0396C22.9893 23.9426 23.5835 22.1138 24.7719 18.4563C25.9603 14.7988 26.5545 12.97 26.0675 11.2602C26.0284 11.123 25.9843 10.9874 25.9353 10.8534C25.3243 9.18392 23.7687 8.05368 20.6574 5.7932C17.5461 3.53272 15.9905 2.40247 14.2139 2.3373C14.0713 2.33207 13.9287 2.33207 13.7862 2.3373C12.0095 2.40247 10.4539 3.53271 7.34261 5.79319ZM11.6667 19.9146C11.1834 19.9146 10.7917 20.3064 10.7917 20.7896C10.7917 21.2729 11.1834 21.6646 11.6667 21.6646H16.3333C16.8166 21.6646 17.2083 21.2729 17.2083 20.7896C17.2083 20.3064 16.8166 19.9146 16.3333 19.9146H11.6667Z" fill=""/>
</svg>