<svg width="24" height="24" viewBox="0 0 24 24" fill="none" xmlns="http://www.w3.org/2000/svg">
<path fill-rule="evenodd" clip-rule="evenodd" d="M6.5073 5.1298C6.82081 4.95229 7.20557 4.95715 7.5145 5.14251L16 10.2338V6C16 5.44772 16.4477 5 17 5C17.5523 5 18 5.44772 18 6V18C18 18.5523 17.5523 19 17 19C16.4477 19 16 18.5523 16 18V13.7662L7.5145 18.8575C7.20557 19.0429 6.82081 19.0477 6.5073 18.8702C6.19379 18.6927 6 18.3603 6 18L6 6C6 5.63973 6.19379 5.30731 6.5073 5.1298ZM15.0563 12L8 7.76619L8 16.2338L15.0563 12Z" fill="white"/>
</svg>
