<svg width="14" height="15" viewBox="0 0 14 15" fill="none" xmlns="http://www.w3.org/2000/svg">
<g id="Play">
<path id="Vector" d="M8.95379 2.77842C7.72691 2.07888 6.77392 1.5355 5.99995 1.183C5.22308 0.82917 4.54873 0.629355 3.89301 0.697418C2.85231 0.80544 1.90491 1.34467 1.28751 2.18389C0.897528 2.71398 0.735154 3.39434 0.656907 4.23665C0.578973 5.07558 0.578976 6.16291 0.57898 7.5613V7.61958C0.578976 9.01796 0.578973 10.1053 0.656907 10.9442C0.735154 11.7865 0.897528 12.4669 1.28751 12.997C1.90491 13.8362 2.85231 14.3754 3.89301 14.4835C4.54873 14.5515 5.22308 14.3517 5.99995 13.9979C6.77391 13.6454 7.7269 13.102 8.95376 12.4025L9.00357 12.3741C10.2304 11.6746 11.1834 11.1312 11.8796 10.6454C12.5778 10.1583 13.0924 9.68022 13.3622 9.08166C13.7901 8.13258 13.7901 7.0483 13.3622 6.09922C13.0924 5.50065 12.5778 5.02258 11.8796 4.53544C11.1834 4.04968 10.2304 3.50629 9.00356 2.8068L8.95379 2.77842Z" fill="#959595"/>
</g>
</svg>
