<svg width="24" height="24" viewBox="0 0 24 24" fill="none" xmlns="http://www.w3.org/2000/svg">
<path fill-rule="evenodd" clip-rule="evenodd" d="M17.4927 5.1298C17.8062 5.30731 18 5.63973 18 6L18 18C18 18.3603 17.8062 18.6927 17.4927 18.8702C17.1792 19.0477 16.7944 19.0429 16.4855 18.8575L8 13.7662V18C8 18.5523 7.55228 19 7 19C6.44772 19 6 18.5523 6 18V6C6 5.44772 6.44772 5 7 5C7.55228 5 8 5.44772 8 6V10.2338L16.4855 5.14251C16.7944 4.95715 17.1792 4.95229 17.4927 5.1298ZM8.94365 12L16 16.2338L16 7.76619L8.94365 12Z" fill="white"/>
</svg>
