<svg width="20" height="25" viewBox="0 0 20 25" fill="none" xmlns="http://www.w3.org/2000/svg">
<path fill-rule="evenodd" clip-rule="evenodd" d="M9.99994 0.458374C6.93934 0.458374 4.45825 2.93946 4.45825 6.00004C4.45825 9.0606 6.93934 11.5417 9.99994 11.5417C13.0605 11.5417 15.5415 9.0606 15.5415 6.00004C15.5415 2.93946 13.0605 0.458374 9.99994 0.458374ZM6.20824 6.00004C6.20824 3.90596 7.90584 2.20837 9.99994 2.20837C12.094 2.20837 13.7915 3.90596 13.7915 6.00004C13.7915 8.09412 12.094 9.7917 9.99994 9.7917C7.90584 9.7917 6.20824 8.09412 6.20824 6.00004Z" fill=""/>
<path fill-rule="evenodd" clip-rule="evenodd" d="M6.49994 13.2917C3.43934 13.2917 0.958252 15.7728 0.958252 18.8334C0.958252 21.894 3.43934 24.375 6.49994 24.375H13.4999C16.5605 24.375 19.0415 21.894 19.0415 18.8334C19.0415 15.7728 16.5605 13.2917 13.4999 13.2917H6.49994ZM2.70825 18.8334C2.70825 16.7393 4.40584 15.0417 6.49994 15.0417H13.4999C15.594 15.0417 17.2915 16.7393 17.2915 18.8334C17.2915 20.9275 15.594 22.625 13.4999 22.625H6.49994C4.40584 22.625 2.70825 20.9275 2.70825 18.8334Z" fill=""/>
<path fill-rule="evenodd" clip-rule="evenodd" d="M6.90325 15C4.19525 15 2.49999 16.7909 2.49999 19C2.49999 21.2092 4.09674 23 6.99999 23H13C15.5 23 17.5 21.2092 17.5 19C17.5 16.7909 15.8048 15 13.0968 15H6.90325Z" fill=""/>
<path d="M13.9999 6C13.9999 8.20914 12.2091 10 9.99994 10C7.7908 10 5.99994 8.20914 5.99994 6C5.99994 3.79086 7.7908 2 9.99994 2C12.2091 2 13.9999 3.79086 13.9999 6Z" fill=""/>
</svg>
