<svg width="24" height="24" viewBox="0 0 24 24" fill="none" xmlns="http://www.w3.org/2000/svg">
<path fill-rule="evenodd" clip-rule="evenodd" d="M4 8C4 6.34315 5.34315 5 7 5H17C18.6569 5 20 6.34315 20 8V9.58579L21.2929 8.29289C21.6834 7.90237 22.3166 7.90237 22.7071 8.29289C23.0976 8.68342 23.0976 9.31658 22.7071 9.70711L19.7071 12.7071C19.5196 12.8946 19.2652 13 19 13C18.7348 13 18.4804 12.8946 18.2929 12.7071L15.2929 9.70711C14.9024 9.31658 14.9024 8.68342 15.2929 8.29289C15.6834 7.90237 16.3166 7.90237 16.7071 8.29289L18 9.58578V8C18 7.44772 17.5523 7 17 7H7C6.44772 7 6 7.44772 6 8C6 8.55228 5.55229 9 5 9C4.44772 9 4 8.55228 4 8ZM4.29289 11.2929C4.68341 10.9024 5.31658 10.9024 5.7071 11.2929L8.70711 14.2929C9.09763 14.6834 9.09763 15.3166 8.70711 15.7071C8.31658 16.0976 7.68342 16.0976 7.29289 15.7071L6 14.4142L6 16C6 16.5523 6.44771 17 7 17H17C17.5523 17 18 16.5523 18 16C18 15.4477 18.4477 15 19 15C19.5523 15 20 15.4477 20 16C20 17.6569 18.6569 19 17 19H7C5.34315 19 4 17.6569 4 16L4 14.4142L2.70711 15.7071C2.31658 16.0976 1.68342 16.0976 1.29289 15.7071C0.902369 15.3166 0.902369 14.6834 1.29289 14.2929L4.29289 11.2929Z" fill="white"/>
</svg>
