<svg width="24" height="24" viewBox="0 0 24 24" fill="none" xmlns="http://www.w3.org/2000/svg">
<path fill-rule="evenodd" clip-rule="evenodd" d="M17.2474 4.34304C17.611 3.92736 18.2428 3.88518 18.6584 4.24882L21.6584 6.87327C21.8755 7.06316 22 7.33752 22 7.62592C22 7.91432 21.8755 8.18867 21.6584 8.37856L18.6584 11.003C18.2428 11.3666 17.611 11.3245 17.2474 10.9088C16.8837 10.4931 16.9259 9.86136 17.3416 9.49772L18.3381 8.62592H17.214C16.3931 8.62592 15.6081 8.96233 15.0418 9.55673L14.9741 9.62787C14.5932 10.0278 13.9602 10.0431 13.5603 9.66221C13.1604 9.28128 13.145 8.6483 13.5259 8.24841L13.5937 8.17727L14.3178 8.867L13.5937 8.17727C14.5374 7.1866 15.8458 6.62592 17.214 6.62592H18.3381L17.3416 5.75411C16.9259 5.39047 16.8837 4.75871 17.2474 4.34304ZM2 7.62592C2 7.07363 2.44772 6.62592 3 6.62592H6.57775C8.09649 6.62592 9.53291 7.3162 10.4818 8.50204L15.0798 14.2484C15.6492 14.9599 16.511 15.3741 17.4223 15.3741H18.3382L17.3416 14.5023C16.9259 14.1386 16.8837 13.5069 17.2474 13.0912C17.611 12.6755 18.2428 12.6333 18.6584 12.997L21.6584 15.6214C21.8755 15.8113 22 16.0857 22 16.3741C22 16.6625 21.8755 16.9368 21.6584 17.1267L18.6584 19.7512C18.2428 20.1148 17.611 20.0726 17.2474 19.657C16.8837 19.2413 16.9259 18.6095 17.3416 18.2459L18.3381 17.3741H17.4223C15.9035 17.3741 14.4671 16.6838 13.5182 15.498L8.92017 9.75159C8.35085 9.04009 7.489 8.62592 6.57775 8.62592H3C2.44772 8.62592 2 8.1782 2 7.62592ZM10.4397 14.3378C10.8396 14.7187 10.855 15.3517 10.4741 15.7516L10.4063 15.8227C9.46262 16.8134 8.15418 17.3741 6.78597 17.3741H3.00001C2.44773 17.3741 2.00001 16.9264 2.00001 16.3741C2.00001 15.8218 2.44773 15.3741 3.00001 15.3741H6.78597C7.6069 15.3741 8.39196 15.0377 8.95817 14.4433L9.02594 14.3721C9.40687 13.9722 10.0399 13.9569 10.4397 14.3378Z" fill="white"/>
</svg>
