<svg width="39" height="143" viewBox="0 0 39 143" fill="none" xmlns="http://www.w3.org/2000/svg">
<path id="Union" fill-rule="evenodd" clip-rule="evenodd" d="M-92.9989 141.275C-84.9746 140.354 -74.4603 138.466 -66.3667 131.423C-63.835 129.221 -61.5446 126.518 -59.6417 123.19C-57.7723 121.486 -56.0442 119.497 -54.5187 117.169C-54.3301 117.013 -54.1428 116.854 -53.9567 116.692C-52.5182 115.44 -51.1576 114.027 -49.9016 112.429C-49.1532 111.885 -48.4203 111.304 -47.7062 110.683C-47.4945 110.499 -47.2845 110.311 -47.0763 110.12C-39.5895 109.042 -30.6825 106.822 -23.6191 100.676C-15.5095 93.6195 -9.87605 81.4317 -11.5202 60.0242C-13.4354 35.0869 -22.7425 22.0507 -29.8906 12.0386C-30.5536 11.11 -31.1981 10.2073 -31.8163 9.32355C-35.4585 4.11751 -38.1534 -0.382411 -38.4514 -5.6634C-38.7493 -10.9421 -36.6535 -17.0666 -30.5397 -25.4998L-30.9966 -25.8672C-37.1385 -17.395 -39.321 -11.142 -39.012 -5.66646C-38.7032 -0.193222 -35.9064 4.43786 -32.264 9.64426C-31.6448 10.5293 -31 11.4325 -30.3373 12.3608L-30.3363 12.3622C-23.2016 22.3562 -13.9818 35.271 -12.08 60.0334C-10.4462 81.3066 -16.0452 93.303 -23.9962 100.221C-30.6869 106.043 -39.0754 108.299 -46.3357 109.417L-46.2519 109.334C-45.9597 109.161 -45.6691 108.982 -45.3804 108.798C-39.8719 107.377 -34.1824 105.01 -29.3544 100.809C-21.2447 93.7527 -15.6113 81.5649 -17.2555 60.1574C-19.1707 35.2201 -28.4778 22.1839 -35.6259 12.1718L-35.6273 12.1698C-36.2898 11.2418 -36.9338 10.3398 -37.5516 9.4567C-41.1937 4.25064 -43.8887 -0.24926 -44.1867 -5.53026C-44.4845 -10.809 -42.3887 -16.9334 -36.275 -25.3667L-36.7319 -25.734C-42.8738 -17.2619 -45.0562 -11.0089 -44.7473 -5.53333C-44.4385 -0.0600838 -41.6416 4.57099 -37.9992 9.77741C-37.3797 10.6629 -36.7347 11.5665 -36.0716 12.4954C-28.9369 22.4893 -19.7171 35.4042 -17.8153 60.1666C-16.1814 81.4397 -21.7805 93.4361 -29.7315 100.354C-33.6899 103.798 -38.2425 105.995 -42.8043 107.446C-40.1904 106.173 -37.66 104.573 -35.3302 102.545C-27.2205 95.4892 -21.5871 83.3014 -23.2313 61.8939C-25.1465 36.9566 -34.4536 23.9204 -41.6016 13.9083L-41.6022 13.9076L-41.6045 13.9043C-42.2666 12.977 -42.91 12.0757 -43.5274 11.1933C-47.1695 5.98721 -49.8645 1.48729 -50.1625 -3.79371C-50.4603 -9.0724 -48.3645 -15.1969 -42.2508 -23.6302L-42.7077 -23.9975C-48.8496 -15.5253 -51.032 -9.2723 -50.7231 -3.79677C-50.4143 1.67647 -47.6174 6.30755 -43.975 11.514C-43.3555 12.3995 -42.7105 13.3031 -42.0474 14.2319C-34.9127 24.2259 -25.6929 37.1407 -23.7911 61.9031C-22.1572 83.1763 -27.7563 95.1727 -35.7073 102.091C-37.7203 103.842 -39.8869 105.271 -42.1304 106.443C-41.9103 106.262 -41.6918 106.077 -41.4751 105.889C-33.3655 98.8323 -27.7321 86.6445 -29.3762 65.237C-31.2914 40.2997 -40.5985 27.2635 -47.7466 17.2514L-47.748 17.2494C-48.4106 16.3214 -49.0545 15.4194 -49.6723 14.5363C-53.3145 9.33028 -56.0094 4.83037 -56.3074 -0.450628C-56.6053 -5.72932 -54.5095 -11.8538 -48.3957 -20.2871L-48.8526 -20.6544C-54.9945 -12.1822 -57.177 -5.92922 -56.868 -0.453694C-56.5592 5.01955 -53.7624 9.65063 -50.12 14.857C-49.5005 15.7426 -48.8554 16.6462 -48.1923 17.575C-41.0576 27.569 -31.8378 40.4838 -29.936 65.2462C-28.3022 86.5194 -33.9012 98.5158 -41.8522 105.434C-42.7398 106.206 -43.6574 106.916 -44.5982 107.568C-38.2205 100.204 -34.1829 88.5772 -35.6073 70.0314C-37.5225 45.0941 -46.8296 32.0579 -53.9777 22.0458L-53.9781 22.0453L-53.9813 22.0407L-53.982 22.0397L-53.9824 22.0391C-54.6438 21.1128 -55.2866 20.2123 -55.9034 19.3307C-59.5455 14.1247 -62.2405 9.62476 -62.5385 4.34376C-62.8363 -0.934952 -60.7405 -7.05943 -54.6268 -15.4927L-55.0837 -15.86C-61.2256 -7.38785 -63.408 -1.13485 -63.0991 4.34069C-62.7903 9.81393 -59.9934 14.445 -56.351 19.6514C-55.7315 20.537 -55.0865 21.4406 -54.4234 22.3694C-47.2887 32.3634 -38.0689 45.2782 -36.1671 70.0406C-34.6842 89.3476 -39.1591 101.013 -45.9428 108.177C-46.3228 108.326 -46.7037 108.469 -47.0853 108.607C-47.1744 108.628 -47.2634 108.648 -47.3524 108.668C-43.0835 101.325 -40.7162 90.9053 -41.8578 76.0401C-43.7731 51.1029 -53.0801 38.0667 -60.2282 28.0546L-60.2297 28.0526C-60.8922 27.1246 -61.5361 26.2226 -62.154 25.3395C-65.7961 20.1335 -68.4911 15.6335 -68.789 10.3525C-69.0869 5.07384 -66.9911 -1.05064 -60.8774 -9.48392L-61.3343 -9.85124C-67.4762 -1.37906 -69.6586 4.87394 -69.3496 10.3495C-69.0408 15.8227 -66.244 20.4538 -62.6016 25.6602C-61.9837 26.5435 -61.3403 27.4447 -60.679 28.371L-60.6777 28.3729L-60.6751 28.3765L-60.6739 28.3782C-53.5393 38.3721 -44.3194 51.2869 -42.4176 76.0494C-41.2575 91.1549 -43.7442 101.583 -48.1303 108.837C-48.9903 109.018 -49.8422 109.179 -50.6819 109.324C-48.323 102.631 -47.2389 94.0496 -48.0858 83.0223C-50.001 58.085 -59.3081 45.0489 -66.4562 35.0368L-66.4566 35.0362L-66.4598 35.0317L-66.4606 35.0306L-66.461 35.03C-67.1223 34.1037 -67.7652 33.2033 -68.3819 32.3217C-72.0241 27.1156 -74.719 22.6157 -75.017 17.3347C-75.3149 12.056 -73.2191 5.93154 -67.1054 -2.50173L-67.5622 -2.86906C-73.7042 5.60312 -75.8866 11.8561 -75.5776 17.3317C-75.2688 22.8049 -72.472 27.436 -68.8296 32.6424C-68.2101 33.5279 -67.565 34.4315 -66.9019 35.3603C-59.7672 45.3543 -50.5474 58.2691 -48.6456 83.0316C-47.7896 94.1772 -48.919 102.776 -51.3319 109.433C-52.5879 109.638 -53.8135 109.807 -54.9947 109.953C-54.0052 104.562 -53.6953 98.2259 -54.2678 90.772C-56.1831 65.8347 -65.4901 52.7985 -72.6382 42.7864C-73.3012 41.8577 -73.9457 40.955 -74.5639 40.0713C-78.2061 34.8653 -80.9011 30.3653 -81.199 25.0843C-81.4969 19.8056 -79.4011 13.6812 -73.2874 5.24788L-73.7442 4.88056C-79.8862 13.3527 -82.0686 19.6057 -81.7596 25.0813C-81.4508 30.5545 -78.654 35.1856 -75.0116 40.392C-74.3937 41.2753 -73.7503 42.1765 -73.089 43.1029L-73.0877 43.1047L-73.0851 43.1083L-73.0839 43.11C-65.9493 53.104 -56.7294 66.0188 -54.8276 90.7812C-54.2509 98.2899 -54.5754 104.643 -55.5862 110.025C-55.7529 110.044 -55.9186 110.064 -56.0834 110.083L-55.9866 110.66L-55.7032 110.628L-55.7264 110.743L-55.7584 110.9C-57.9551 111.306 -60.0793 111.592 -62.0592 111.819L-61.9624 112.397C-60.0568 112.178 -58.0109 111.905 -55.8902 111.521C-55.9938 111.994 -56.1029 112.459 -56.2173 112.917C-60.4029 114.124 -64.5496 114.743 -68.2041 115.162L-68.1073 115.74C-64.5479 115.331 -60.4985 114.732 -56.3879 113.578C-56.5891 114.335 -56.8053 115.07 -57.0356 115.785C-62.9574 118.346 -69.201 119.356 -74.4352 119.957L-74.3384 120.534C-69.2392 119.949 -63.1345 118.973 -57.2845 116.532C-57.5995 117.45 -57.9385 118.331 -58.2995 119.178C-65.5418 123.742 -73.9496 125.192 -80.6857 125.965L-80.5889 126.543C-74.0659 125.794 -65.8974 124.406 -58.7214 120.13C-59.1504 121.063 -59.6072 121.952 -60.0891 122.799C-60.2457 122.941 -60.4033 123.081 -60.5618 123.219C-68.5289 130.151 -78.9034 132.028 -86.9137 132.948L-86.8169 133.525C-79.0825 132.637 -69.0347 130.851 -61.0711 124.417C-62.7425 126.999 -64.6626 129.158 -66.7438 130.969C-74.7109 137.901 -85.0854 139.777 -93.0957 140.697L-92.9989 141.275ZM-50.2977 110.25C-50.5671 110.325 -50.8362 110.398 -51.1049 110.469C-51.2066 110.732 -51.3103 110.992 -51.4161 111.249C-50.8128 110.999 -50.2124 110.735 -49.6162 110.453C-49.8296 110.478 -50.0413 110.503 -50.2513 110.527L-50.2977 110.25ZM-55.1091 110.557C-54.2451 110.452 -53.3555 110.334 -52.4459 110.2C-53.3563 110.418 -54.2607 110.612 -55.1543 110.786C-55.1391 110.709 -55.124 110.633 -55.1091 110.557ZM-55.283 111.408C-55.3782 111.855 -55.4784 112.296 -55.5832 112.729C-54.4438 112.385 -53.3032 111.995 -52.1705 111.552C-52.0423 111.254 -51.9168 110.952 -51.7942 110.646C-52.9701 110.939 -54.1364 111.19 -55.283 111.408ZM-47.8519 109.499L-47.9103 109.593C-47.7897 109.528 -47.6693 109.463 -47.5492 109.396C-47.6501 109.431 -47.751 109.465 -47.8519 109.499ZM-48.5651 110.599L-48.4458 110.539L-48.5338 110.613L-48.628 110.691L-48.5651 110.599ZM-51.7426 112.018C-51.0399 111.74 -50.3402 111.441 -49.6455 111.119C-49.861 111.415 -50.0799 111.705 -50.3022 111.989C-50.9775 112.478 -51.6657 112.936 -52.3642 113.365C-52.1507 112.926 -51.9434 112.477 -51.7426 112.018ZM-55.7489 113.394C-54.669 113.076 -53.5863 112.718 -52.5087 112.314C-52.7598 112.862 -53.0204 113.396 -53.2901 113.915C-54.2892 114.487 -55.3069 115.005 -56.3359 115.474C-56.1277 114.799 -55.9318 114.106 -55.7489 113.394ZM-56.5764 116.229C-56.8475 117.054 -57.1374 117.851 -57.4451 118.621C-56.5927 118.047 -55.7585 117.427 -54.9473 116.757C-54.5551 116.155 -54.1764 115.531 -53.8123 114.882C-54.7225 115.372 -55.6456 115.82 -56.5764 116.229ZM-52.8628 114.352C-53.0596 114.726 -53.2611 115.094 -53.4672 115.454C-52.8596 114.883 -52.2674 114.281 -51.6931 113.644C-52.0799 113.889 -52.4699 114.124 -52.8628 114.352ZM-57.8485 119.593C-57.2527 119.213 -56.6648 118.813 -56.0861 118.39C-56.9207 119.51 -57.8054 120.541 -58.7313 121.49C-58.4244 120.877 -58.1299 120.245 -57.8485 119.593ZM-18.1557 101.96C-26.2493 109.002 -36.7635 110.89 -44.7879 111.811L-44.8847 111.233C-36.8743 110.314 -26.4998 108.437 -18.5328 101.505C-10.5818 94.5869 -4.98275 82.5905 -6.61657 61.3173C-8.51839 36.5549 -17.7382 23.6401 -24.8729 13.6461L-24.876 13.6417L-24.8765 13.6411L-24.8796 13.6368C-25.5403 12.7112 -26.1831 11.8107 -26.8006 10.9281C-30.4429 5.72172 -33.2398 1.09064 -33.5486 -4.3826C-33.8576 -9.85814 -31.6751 -16.1111 -25.5332 -24.5833L-25.0763 -24.216C-31.19 -15.7827 -33.2858 -9.65824 -32.988 -4.37953C-32.69 0.901468 -29.995 5.40139 -26.3529 10.6074C-25.7362 11.4889 -25.0935 12.3892 -24.4322 13.3155L-24.4277 13.3217L-24.4272 13.3225C-17.2791 23.3346 -7.97202 36.3708 -6.05678 61.3081C-4.41263 82.7156 -10.046 94.9034 -18.1557 101.96ZM-39.5773 114.207C-31.553 113.285 -21.0387 111.397 -12.9451 104.355C-4.83546 97.299 0.797942 85.1112 -0.846205 63.7037C-2.76145 38.7664 -12.0685 25.7302 -19.2166 15.7181C-19.8796 14.7894 -20.5241 13.8868 -21.1423 13.003C-24.7845 7.79699 -27.4794 3.29708 -27.7774 -1.98393C-28.0753 -7.26263 -25.9795 -13.3871 -19.8657 -21.8204L-20.3226 -22.1877C-26.4646 -13.7155 -28.647 -7.46252 -28.338 -1.98698C-28.0292 3.48626 -25.2324 8.11734 -21.59 13.3238C-20.9714 14.208 -20.3272 15.1103 -19.6652 16.0377L-19.6624 16.0416L-19.6623 16.0417C-12.5276 26.0357 -3.3078 38.9505 -1.406 63.7129C0.227826 84.9861 -5.37123 96.9825 -13.3222 103.901C-21.2893 110.833 -31.6638 112.709 -39.6741 113.629L-39.5773 114.207ZM-7.93196 107.53C-16.0255 114.572 -26.5398 116.46 -34.5642 117.381L-34.661 116.803C-26.6506 115.884 -16.2761 114.007 -8.30906 107.075C-0.358084 100.157 5.24098 88.1604 3.60715 66.8872C1.70534 42.1248 -7.51449 29.21 -14.6492 19.216L-14.6514 19.2129L-14.6529 19.2108C-15.3147 18.2838 -15.9585 17.3819 -16.5768 16.498C-20.2192 11.2916 -23.0161 6.66054 -23.3249 1.1873C-23.6338 -4.28823 -21.4514 -10.5412 -15.3095 -19.0134L-14.8526 -18.6461C-20.9663 -10.2128 -23.0621 -4.08835 -22.7643 1.19036C-22.4663 6.47136 -19.7713 10.9713 -16.1292 16.1773C-15.5118 17.0598 -14.8684 17.9611 -14.2063 18.8884L-14.204 18.8916L-14.2034 18.8924C-7.05539 28.9045 2.2517 41.9407 4.16694 66.878C5.81109 88.2855 0.177689 100.473 -7.93196 107.53ZM-29.6806 121.031C-21.6563 120.109 -11.142 118.222 -3.04842 111.179C5.06123 104.123 10.6946 91.9354 9.05049 70.5278C7.13524 45.5905 -2.17184 32.5544 -9.3199 22.5423L-9.32045 22.5415L-9.32278 22.5382C-9.98481 21.6109 -10.6283 20.7096 -11.2456 19.8272C-14.8878 14.6211 -17.5828 10.1212 -17.8807 4.84022C-18.1786 -0.438473 -16.0828 -6.56295 -9.96905 -14.9962L-10.426 -15.3636C-16.5679 -6.89139 -18.7503 -0.638371 -18.4413 4.83717C-18.1325 10.3104 -15.3357 14.9415 -11.6933 20.1479C-11.0751 21.0316 -10.4314 21.9333 -9.76975 22.8601L-9.76876 22.8615L-9.76598 22.8654L-9.76589 22.8655L-9.7658 22.8656L-9.76571 22.8657L-9.76562 22.8658C-2.63095 32.8598 6.58888 45.7746 8.49069 70.5371C10.1245 91.8102 4.52546 103.807 -3.42552 110.725C-11.3926 117.657 -21.7671 119.533 -29.7774 120.453L-29.6806 121.031ZM1.77016 115.06C-6.32341 122.102 -16.8377 123.99 -24.8621 124.911L-24.9588 124.334C-16.9485 123.414 -6.574 121.537 1.39306 114.605C9.34403 107.687 14.9431 95.6906 13.3093 74.4175C11.4075 49.655 2.18763 36.7402 -4.94704 26.7462L-4.94926 26.7431L-4.95301 26.7379L-4.95624 26.7333C-5.61609 25.809 -6.25806 24.9097 -6.87472 24.0283C-10.5171 18.8219 -13.3139 14.1908 -13.6228 8.71756C-13.9317 3.24203 -11.7493 -3.01098 -5.60737 -11.4832L-5.15048 -11.1158C-11.2642 -2.68255 -13.36 3.44191 -13.0622 8.72062C-12.7642 14.0016 -10.0692 18.5015 -6.42707 23.7076C-5.80898 24.5911 -5.16471 25.4935 -4.50187 26.4219L-4.50133 26.4227C2.64674 36.4348 11.9538 49.4709 13.8691 74.4082C15.5132 95.8158 9.87981 108.004 1.77016 115.06ZM-20.0551 128.829C-12.0308 127.908 -1.51648 126.02 6.57709 118.978C14.6867 111.922 20.3201 99.7339 18.676 78.3264C16.7608 53.3891 7.45367 40.3529 0.305604 30.3408L0.304597 30.3395L0.299252 30.332L0.295526 30.3267C-0.363959 29.403 -1.00502 28.505 -1.62014 27.6257C-5.26226 22.4197 -7.95725 17.9198 -8.25522 12.6388C-8.55307 7.3601 -6.45727 1.23562 -0.343547 -7.19767L-0.800445 -7.56498C-6.94236 0.907187 -9.12479 7.1602 -8.81583 12.6357C-8.50701 18.109 -5.71017 22.7401 -2.06779 27.9465C-1.44827 28.832 -0.803198 29.7356 -0.140112 30.6644C6.99456 40.6584 16.2144 53.5732 18.1162 78.3356C19.75 99.6088 14.151 111.605 6.19999 118.523C-1.76707 125.455 -12.1416 127.332 -20.1519 128.252L-20.0551 128.829ZM11.4148 122.792C3.32124 129.834 -7.19305 131.722 -15.2174 132.644L-15.3142 132.066C-7.30384 131.146 3.07065 129.27 11.0377 122.338C18.9887 115.419 24.5877 103.423 22.9539 82.1499C21.0521 57.3875 11.8323 44.4727 4.69761 34.4787C4.03452 33.5499 3.38945 32.6463 2.76993 31.7607C-0.872447 26.5543 -3.66929 21.9232 -3.97811 16.45C-4.28707 10.9745 -2.10464 4.72146 4.03728 -3.75072L4.49417 -3.3834C-1.61954 5.04988 -3.71535 11.1744 -3.4175 16.4531C-3.11952 21.7341 -0.424537 26.234 3.21758 31.44C3.83553 32.3233 4.47965 33.2255 5.14233 34.1537L5.14333 34.1551C12.2914 44.1672 21.5985 57.2034 23.5137 82.1407C25.1579 103.548 19.5245 115.736 11.4148 122.792ZM-10.3207 136.247C-2.29636 135.325 8.21793 133.437 16.3115 126.395C24.4212 119.339 30.0546 107.151 28.4104 85.7437C26.4952 60.8064 17.1881 47.7702 10.04 37.7581C9.37699 36.8295 8.73253 35.9268 8.11427 35.0431C4.47215 29.837 1.77716 25.3371 1.47919 20.0561C1.18134 14.7774 3.27715 8.65292 9.39086 0.219647L8.93397 -0.147675C2.79206 8.3245 0.609629 14.5775 0.918577 20.053C1.2274 25.5263 4.02424 30.1574 7.66662 35.3638C8.28521 36.248 8.92928 37.1502 9.59131 38.0775L9.59268 38.0795L9.5943 38.0817C16.729 48.0757 25.9488 60.9905 27.8506 85.7529C29.4844 107.026 23.8854 119.023 15.9344 125.941C7.96735 132.873 -2.40715 134.749 -10.4175 135.669L-10.3207 136.247ZM21.2863 129.712C13.1928 136.754 2.67848 138.642 -5.34587 139.563L-5.44265 138.986C2.56769 138.066 12.9422 136.189 20.9092 129.257C28.8602 122.339 34.4593 110.343 32.8254 89.0696C30.9236 64.3071 21.7038 51.3923 14.5691 41.3984C13.9061 40.4695 13.261 39.5659 12.6415 38.6804C8.99908 33.474 6.20224 28.8429 5.89342 23.3697C5.58446 17.8941 7.7669 11.6411 13.9088 3.16895L14.3657 3.53627C8.25198 11.9696 6.15618 18.094 6.45403 23.3727C6.752 28.6537 9.44699 33.1536 13.0891 38.3597C13.7074 39.2434 14.3518 40.1461 15.0149 41.0748C22.1629 51.0869 31.47 64.1231 33.3852 89.0604C35.0294 110.468 29.396 122.656 21.2863 129.712ZM-0.281413 142.542C7.74294 141.621 18.2572 139.733 26.3508 132.691C34.4604 125.635 40.0938 113.447 38.4497 92.0393C36.5345 67.102 27.2274 54.0658 20.0793 44.0537C19.4163 43.125 18.7718 42.2223 18.1536 41.3386C14.5115 36.1326 11.8165 31.6327 11.5185 26.3517C11.2206 21.073 13.3164 14.9485 19.4302 6.5152L18.9733 6.14788C12.8314 14.62 10.6489 20.8731 10.9579 26.3486C11.2667 31.8218 14.0635 36.4529 17.7059 41.6593C18.3252 42.5445 18.97 43.4478 19.6329 44.3763L19.6336 44.3773C26.7683 54.3713 35.9881 67.2861 37.8899 92.0485C39.5237 113.322 33.9247 125.318 25.9737 132.236C18.0066 139.168 7.63214 141.045 -0.378191 141.965L-0.281413 142.542Z" fill="url(#paint0_radial_1_518)" fill-opacity="0.58"/>
<defs>
<radialGradient id="paint0_radial_1_518" cx="0" cy="0" r="1" gradientUnits="userSpaceOnUse" gradientTransform="translate(-13.834 73.1305) rotate(-87.632) scale(90.969 69.4478)">
<stop stop-color="white"/>
<stop offset="1" stop-color="#1E1E1E" stop-opacity="0"/>
<stop offset="1" stop-color="#0E0E35" stop-opacity="0"/>
<stop offset="1" stop-color="white" stop-opacity="0"/>
</radialGradient>
</defs>
</svg>
