<svg width="96" height="96" viewBox="0 0 96 96" fill="none" xmlns="http://www.w3.org/2000/svg">
<path d="M48 0C21.531 0 0 21.531 0 48C0 74.469 21.531 96 48 96C74.469 96 96 74.469 96 48C96 21.531 74.469 0 48 0ZM48 86C27.047 86 10 68.953 10 48C10 27.047 27.047 10 48 10C68.953 10 86 27.047 86 48C86 68.953 68.953 86 48 86ZM65 33V65C65 67.7617 62.7617 70 60 70C57.2383 70 55 67.7617 55 65V33C55 30.2383 57.2383 28 60 28C62.7617 28 65 30.2383 65 33ZM53 23V74C53 76.7617 50.7617 79 48 79C45.2383 79 43 76.7617 43 74V23C43 20.2383 45.2383 18 48 18C50.7617 18 53 20.2383 53 23ZM29 47V53C29 55.7617 26.7617 58 24 58C21.2383 58 19 55.7617 19 53V47C19 44.2383 21.2383 42 24 42C26.7617 42 29 44.2383 29 47ZM41 39V59C41 61.7617 38.7617 64 36 64C33.2383 64 31 61.7617 31 59V39C31 36.2383 33.2383 34 36 34C38.7617 34 41 36.2383 41 39ZM77 45V51C77 53.7617 74.7617 56 72 56C69.2383 56 67 53.7617 67 51V45C67 42.2383 69.2383 40 72 40C74.7617 40 77 42.2383 77 45Z" fill="white"/>
</svg>
