<svg id="Gradient" height="512" viewBox="0 0 24 24" width="512" xmlns="http://www.w3.org/2000/svg" xmlns:xlink="http://www.w3.org/1999/xlink"><linearGradient id="linear-gradient" gradientUnits="userSpaceOnUse" x1="4.97" x2="19.03" y1="4.97" y2="19.03"><stop offset="0" stop-color="#fff1bf"/><stop offset=".2947" stop-color="#ec458d"/><stop offset=".393" stop-color="#e14591"/><stop offset=".561" stop-color="#c6469d"/><stop offset=".7784" stop-color="#9a49b1"/><stop offset="1" stop-color="#664cc9"/></linearGradient><path d="m22 15.75c-.4141 0-.75-.3359-.75-.75v-6c0-.4141.3359-.75.75-.75s.75.3359.75.75v6c0 .4141-.3359.75-.75.75zm-2.5835 1.25v-10c0-.4141-.3359-.75-.75-.75s-.75.3359-.75.75v10c0 .4141.3359.75.75.75s.75-.3359.75-.75zm-3.333-3v-4c0-.4141-.3359-.75-.75-.75s-.75.3359-.75.75v4c0 .4141.3359.75.75.75s.75-.3359.75-.75zm-3.3335 4v-12c0-.4141-.3359-.75-.75-.75s-.75.3359-.75.75v12c0 .4141.3359.75.75.75s.75-.3359.75-.75zm-3.3335 2v-16c0-.4141-.3359-.75-.75-.75s-.75.3359-.75.75v16c0 .4141.3359.75.75.75s.75-.3359.75-.75zm-3.333-4v-8c0-.4141-.3359-.75-.75-.75s-.75.3359-.75.75v8c0 .4141.3359.75.75.75s.75-.3359.75-.75zm-3.3335-1v-6c0-.4141-.3359-.75-.75-.75s-.75.3359-.75.75v6c0 .4141.3359.75.75.75s.75-.3359.75-.75z" fill="url(#linear-gradient)"/></svg>