<svg width="1303" height="598" viewBox="0 0 1303 598" fill="none" xmlns="http://www.w3.org/2000/svg">
<circle cx="299" cy="299" r="299" fill="#62CD5D"/>
<path d="M512.333 379C503.499 379 496.333 371.834 496.333 363V235C496.333 226.166 503.499 219 512.333 219C521.167 219 528.333 226.166 528.333 235V363C528.333 371.834 521.167 379 512.333 379ZM457.219 405.667V192.333C457.219 183.499 450.053 176.333 441.219 176.333C432.385 176.333 425.219 183.499 425.219 192.333V405.667C425.219 414.501 432.385 421.667 441.219 421.667C450.053 421.667 457.219 414.501 457.219 405.667ZM386.115 341.667V256.333C386.115 247.499 378.949 240.333 370.115 240.333C361.281 240.333 354.115 247.499 354.115 256.333V341.667C354.115 350.501 361.281 357.667 370.115 357.667C378.949 357.667 386.115 350.501 386.115 341.667ZM315 427V171C315 162.166 307.834 155 299 155C290.166 155 283 162.166 283 171V427C283 435.834 290.166 443 299 443C307.834 443 315 435.834 315 427ZM243.885 469.667V128.333C243.885 119.499 236.719 112.333 227.885 112.333C219.051 112.333 211.885 119.499 211.885 128.333V469.667C211.885 478.501 219.051 485.667 227.885 485.667C236.719 485.667 243.885 478.501 243.885 469.667ZM172.781 384.333V213.667C172.781 204.833 165.615 197.667 156.781 197.667C147.947 197.667 140.781 204.833 140.781 213.667V384.333C140.781 393.167 147.947 400.333 156.781 400.333C165.615 400.333 172.781 393.167 172.781 384.333ZM101.667 363V235C101.667 226.166 94.5008 219 85.6667 219C76.8325 219 69.6667 226.166 69.6667 235V363C69.6667 371.834 76.8325 379 85.6667 379C94.5008 379 101.667 371.834 101.667 363Z" fill="black"/>
<path d="M706.6 413C705.8 413 705.3 412.5 705.1 411.5L669.7 205.4C669.5 204.6 669.8 204.2 670.6 204.2H704.2C705 204.2 705.5 204.6 705.7 205.4L724.9 341L744.7 205.4C744.9 204.6 745.5 204.2 746.5 204.2H773.5C774.3 204.2 774.8 204.6 775 205.4L794.5 341L814 205.4C814.2 204.6 814.7 204.2 815.5 204.2H848.8C849.8 204.2 850.2 204.6 850 205.4L814.3 411.5C814.1 411.9 813.8 412.3 813.4 412.7C813 412.9 812.8 413 812.8 413H776.5C775.9 413 775.4 412.5 775 411.5L759.7 303.8L744.4 411.5C744.2 412.5 743.7 413 742.9 413H706.6ZM874.874 411.5L912.074 205.4C912.274 204.6 912.774 204.2 913.574 204.2H957.074C957.874 204.2 958.374 204.6 958.574 205.4L994.274 411.5C994.474 412.5 994.074 413 993.074 413H959.774C958.974 413 958.474 412.5 958.274 411.5L954.974 389.6H914.174L910.874 411.5C910.674 412.5 910.174 413 909.374 413H876.074C875.274 413 874.874 412.5 874.874 411.5ZM920.174 357.5H948.974L936.674 273.2L934.874 262.1L933.674 273.2L920.174 357.5ZM1033.49 411.5L1070.69 205.4C1070.89 204.6 1071.39 204.2 1072.19 204.2H1115.69C1116.49 204.2 1116.99 204.6 1117.19 205.4L1152.89 411.5C1153.09 412.5 1152.69 413 1151.69 413H1118.39C1117.59 413 1117.09 412.5 1116.89 411.5L1113.59 389.6H1072.79L1069.49 411.5C1069.29 412.5 1068.79 413 1067.99 413H1034.69C1033.89 413 1033.49 412.5 1033.49 411.5ZM1078.79 357.5H1107.59L1095.29 273.2L1093.49 262.1L1092.29 273.2L1078.79 357.5ZM1218.32 413C1217.52 413 1217.02 412.5 1216.82 411.5L1175.42 205.4C1175.22 204.6 1175.62 204.2 1176.62 204.2H1210.52C1211.32 204.2 1211.82 204.6 1212.02 205.4L1236.62 342.8L1260.62 205.4C1260.82 204.6 1261.32 204.2 1262.12 204.2H1295.72C1296.72 204.2 1297.12 204.6 1296.92 205.4L1256.12 411.5C1255.92 412.5 1255.42 413 1254.62 413H1218.32Z" fill="#62CD5D"/>
</svg>
